<!-- google.svg -->
<svg xmlns="http://www.w3.org/2000/svg" width="18" height="18" viewBox="0 0 18 18">
  <path fill="#EA4335" d="M9 3.48c1.69 0 2.83.73 3.48 1.34l2.56-2.49C13.46.89 11.43 0 9 0 5.48 0 2.44 2.03 1 5.01l2.98 2.32C4.6 5.15 6.64 3.48 9 3.48z"/>
  <path fill="#34A853" d="M17.64 9.2c0-.63-.06-1.25-.17-1.84H9v3.48h4.84c-.21 1.14-.84 2.1-1.79 2.76l2.82 2.2c1.65-1.52 2.6-3.76 2.6-6.6z"/>
  <path fill="#4285F4" d="M3.98 10.79a5.41 5.41 0 010-3.58L1 4.89a9.01 9.01 0 000 8.02l2.98-2.12z"/>
  <path fill="#FBBC05" d="M9 18c2.43 0 4.47-.8 5.96-2.18l-2.82-2.2c-.78.52-1.78.84-3.14.84-2.36 0-4.4-1.67-5.02-3.91L1 13.11C2.44 15.97 5.48 18 9 18z"/>
</svg>
